<svg xmlns="http://www.w3.org/2000/svg" viewBox="0 0 107.168 27.672"><path d="M56.675 20.296c.692 0 1.254-.27 1.685-.811s.647-1.25.647-2.13v-2.584c0-.744-.212-1.348-.634-1.812-.423-.465-.98-.697-1.673-.697h-1.622c-.575 0-1.102.223-1.584.67s-.824 1.028-1.027 1.737v2.94c.085.795.368 1.44.85 1.939.482.499 1.06.748 1.736.748h1.622zm-4.208 1.166v6.21h-1.33c-.875 0-1.584-.71-1.584-1.585V9.955m0 0h2.711v1.495a4.06 4.06 0 011.382-1.23c.566-.311 1.12-.468 1.66-.468h1.673c1.47 0 2.657.444 3.561 1.33.904.888 1.356 2.058 1.356 3.51v2.94c0 1.59-.448 2.865-1.343 3.829-.896.963-2.087 1.444-3.574 1.444h-1.698c-.49 0-.998-.122-1.52-.367a3.68 3.68 0 01-1.294-.976v6.21h-1.33c-.875 0-1.584-.71-1.584-1.585V9.955zM99.561 20.126l-2.854-.005c-.473 0-.82-.126-1.039-.38-.22-.253-.329-.659-.329-1.216v-.972l-.004-5.075h3.823V9.97h-3.823V6.142H92.42l.004 12.484c0 1.386.33 2.4.99 3.042.658.642 1.705.963 3.141.963l1.435.01a1.584 1.584 0 001.586-1.582l-.015-.933zM22.687 15.053v-.355c0-.743-.203-1.343-.608-1.8-.406-.455-.938-.684-1.597-.684H18.43c-.693 0-1.254.24-1.686.723-.43.48-.645 1.11-.645 1.888v.228h6.589zm-6.983 7.198c-.786-.39-1.394-.938-1.825-1.647-.43-.71-.646-1.53-.646-2.46V14.75c0-.98.215-1.846.646-2.598s1.04-1.335 1.825-1.75c.786-.413 1.694-.62 2.725-.62h2.027c1.538 0 2.771.448 3.701 1.344.93.895 1.394 2.087 1.394 3.573v2.007a.528.528 0 01-.528.528h-8.875v.912c0 .676.207 1.217.62 1.623.415.405.968.608 1.661.608h1.952c.675 0 1.22-.165 1.635-.494.413-.33.62-.765.62-1.306H25.5c0 1.284-.473 2.315-1.419 3.092-.946.778-2.189 1.166-3.726 1.166h-1.926c-1.031 0-1.939-.194-2.725-.583M73.58 15.053v-.355c0-.743-.202-1.343-.607-1.8-.406-.455-.938-.684-1.598-.684h-2.052c-.693 0-1.255.24-1.686.723-.431.48-.646 1.11-.646 1.888v.228h6.589zm-6.982 7.198c-.786-.39-1.394-.938-1.825-1.647-.431-.71-.646-1.53-.646-2.46V14.75c0-.98.215-1.846.646-2.598s1.039-1.335 1.825-1.75c.786-.413 1.694-.62 2.725-.62h2.027c1.538 0 2.77.448 3.7 1.344.93.895 1.395 2.087 1.395 3.573v2.007a.529.529 0 01-.528.528H67.04v.912c0 .676.207 1.217.62 1.623.416.405.969.608 1.662.608h1.952c.675 0 1.22-.165 1.635-.494.413-.33.62-.765.62-1.306h2.864c0 1.284-.473 2.315-1.42 3.092-.946.778-2.188 1.166-3.725 1.166h-1.926c-1.031 0-1.94-.194-2.725-.583M89.395 16.624c-.559-.524-1.302-.879-2.23-1.065l-4.538-.81c-.32-.05-.579-.16-.773-.33s-.29-.372-.29-.608v-.507c0-.338.16-.6.48-.786.322-.186.777-.279 1.37-.279h2.002c.49 0 .882.135 1.177.406.264.241.404.56.432.95v1.16h1.352c.673.001 1.118-.429 1.294-1.02.05-.169.078-.352.081-.543l.002-.028-.005-.002c-.087-.921-.4-1.686-1.089-2.29-.829-.727-1.91-1.09-3.244-1.09h-2.028c-1.47 0-2.624.303-3.46.911-.837.608-1.255 1.437-1.255 2.484v.836c0 .727.287 1.365.862 1.914.574.55 1.352.91 2.332 1.077l4.385.761c.338.067.603.186.798.354a.78.78 0 01.291.61v.556c0 .339-.164.605-.493.8-.33.193-.783.29-1.356.29h-2.256c-.592 0-1.065-.165-1.42-.494-.355-.33-.532-.764-.532-1.305H78.42c0 1.284.44 2.315 1.318 3.092.878.778 2.044 1.166 3.498 1.166h2.256c1.435 0 2.585-.309 3.446-.926.862-.616 1.293-1.448 1.293-2.496v-.938c0-.709-.279-1.326-.836-1.85"></path><path d="M17.457 4.761h-6.21v.003H6.209v-.003H1.584C.709 4.761 0 5.471 0 6.345l.043.98H7.276v9.131h-.003v6.21l1.389.043c.875 0 1.585-.71 1.585-1.584V16.5h-.005V7.324h5.674c.874 0 1.584-.71 1.584-1.584l-.043-.979zM46.461 14.166c0-1.334-.367-2.4-1.103-3.193-.735-.795-1.719-1.192-2.952-1.192h-1.445c-.591 0-1.149.165-1.673.494-.524.33-.972.79-1.343 1.382a3.35 3.35 0 00-1.192-1.382 3.093 3.093 0 00-1.723-.494h-1.444c-.507 0-1.006.16-1.496.482-.49.32-.896.76-1.217 1.317V9.984h-2.711v12.63l1.343.02a1.584 1.584 0 001.586-1.582l-.015-6.05c.118-.794.385-1.44.799-1.938.414-.498.899-.748 1.458-.748h1.14c.422 0 .76.173 1.014.519.253.347.379.808.379 1.382v8.414h2.89v-8.11c.118-.676.372-1.212.761-1.61a1.908 1.908 0 011.419-.595h1.216c.423 0 .761.164 1.015.493.252.33.379.774.379 1.332l-.009 8.474 1.343.019a1.584 1.584 0 001.586-1.582l-.005-6.886zM103.263 1.69a2.215 2.215 0 110 4.43 2.215 2.215 0 010-4.43m0-1.69c-2.154 0-3.905 1.752-3.905 3.905s1.751 3.905 3.905 3.905 3.905-1.752 3.905-3.905S105.416 0 103.263 0z"></path></svg>